<svg width="530" height="425" viewBox="0 0 530 425" xmlns="http://www.w3.org/2000/svg">
<path d="M3 2h102v1h-102z M2 3h103v1h-103z M2 4h103v1h-103z M2 5h103v1h-103z M2 6h103v1h-103z M2 7h103v1h-103z M2 8h103v1h-103z M2 9h103v1h-103z M2 10h103v1h-103z M2 11h103v1h-103z M2 12h103v1h-103z M2 13h103v1h-103z M2 14h103v1h-103z M2 15h103v1h-103z M2 16h103v1h-103z M2 17h103v1h-103z M2 18h103v1h-103z M2 19h103v1h-103z M2 20h103v1h-103z M2 21h50v1h-50z M54 21h51v1h-51z M2 22h49v1h-49z M56 22h49v1h-49z M2 23h48v1h-48z M57 23h48v1h-48z M2 24h34v1h-34z M39 24h10v1h-10z M58 24h10v1h-10z M71 24h34v1h-34z M2 25h33v1h-33z M41 25h7v1h-7z M58 25h8v1h-8z M71 25h34v1h-34z M2 26h33v1h-33z M42 26h5v1h-5z M59 26h5v1h-5z M72 26h33v1h-33z M2 27h33v1h-33z M44 27h3v1h-3z M60 27h3v1h-3z M72 27h33v1h-33z M2 28h32v1h-32z M72 28h33v1h-33z M2 29h32v1h-32z M72 29h33v1h-33z M2 30h32v1h-32z M72 30h33v1h-33z M2 31h19v1h-19z M31 31h3v1h-3z M72 31h5v1h-5z M85 31h20v1h-20z M2 32h19v1h-19z M33 32h1v1h-1z M62 32h1v1h-1z M72 32h1v1h-1z M85 32h20v1h-20z M2 33h19v1h-19z M62 33h1v1h-1z M85 33h20v1h-20z M2 34h19v1h-19z M43 34h1v1h-1z M85 34h20v1h-20z M2 35h19v1h-19z M85 35h20v1h-20z M2 36h20v1h-20z M42 36h1v1h-1z M63 36h1v1h-1z M85 36h20v1h-20z M2 37h20v1h-20z M63 37h1v1h-1z M85 37h20v1h-20z M2 38h20v1h-20z M84 38h21v1h-21z M2 39h21v1h-21z M63 39h1v1h-1z M84 39h21v1h-21z M2 40h20v1h-20z M83 40h22v1h-22z M2 41h21v1h-21z M83 41h22v1h-22z M2 42h22v1h-22z M43 42h1v1h-1z M82 42h23v1h-23z M2 43h13v1h-13z M24 43h1v1h-1z M82 43h1v1h-1z M91 43h14v1h-14z M2 44h9v1h-9z M43 44h1v1h-1z M96 44h9v1h-9z M2 45h7v1h-7z M62 45h1v1h-1z M98 45h7v1h-7z M2 46h6v1h-6z M98 46h7v1h-7z M2 47h6v1h-6z M98 47h7v1h-7z M2 48h7v1h-7z M97 48h8v1h-8z M2 49h8v1h-8z M45 49h1v1h-1z M96 49h9v1h-9z M2 50h9v1h-9z M95 50h10v1h-10z M2 51h11v1h-11z M94 51h11v1h-11z M2 52h12v1h-12z M93 52h12v1h-12z M2 53h13v1h-13z M92 53h13v1h-13z M2 54h14v1h-14z M90 54h15v1h-15z M2 55h17v1h-17z M88 55h17v1h-17z M2 56h19v1h-19z M86 56h19v1h-19z M2 57h20v1h-20z M84 57h21v1h-21z M2 58h24v1h-24z M49 58h8v1h-8z M82 58h23v1h-23z M2 59h28v1h-28z M49 59h9v1h-9z M77 59h28v1h-28z M2 60h30v1h-30z M33 60h4v1h-4z M38 60h1v1h-1z M41 60h3v1h-3z M45 60h9v1h-9z M55 60h7v1h-7z M65 60h1v1h-1z M70 60h35v1h-35z M2 61h24v1h-24z M29 61h2v1h-2z M34 61h2v1h-2z M39 61h2v1h-2z M42 61h2v1h-2z M46 61h2v1h-2z M50 61h3v1h-3z M56 61h3v1h-3z M60 61h2v1h-2z M65 61h1v1h-1z M70 61h2v1h-2z M74 61h1v1h-1z M77 61h2v1h-2z M82 61h23v1h-23z M2 62h23v1h-23z M57 62h2v1h-2z M61 62h1v1h-1z M70 62h2v1h-2z M74 62h1v1h-1z M77 62h1v1h-1z M83 62h22v1h-22z M2 63h23v1h-23z M27 63h1v1h-1z M37 63h2v1h-2z M55 63h1v1h-1z M70 63h1v1h-1z M73 63h2v1h-2z M76 63h1v1h-1z M80 63h2v1h-2z M83 63h22v1h-22z M2 64h23v1h-23z M27 64h1v1h-1z M37 64h2v1h-2z M48 64h2v1h-2z M54 64h2v1h-2z M70 64h1v1h-1z M73 64h1v1h-1z M76 64h1v1h-1z M79 64h2v1h-2z M83 64h22v1h-22z M2 65h23v1h-23z M70 65h1v1h-1z M83 65h22v1h-22z M2 66h25v1h-25z M29 66h2v1h-2z M34 66h2v1h-2z M39 66h2v1h-2z M42 66h1v1h-1z M44 66h1v1h-1z M46 66h1v1h-1z M50 66h4v1h-4z M58 66h3v1h-3z M63 66h2v1h-2z M70 66h2v1h-2z M77 66h2v1h-2z M81 66h24v1h-24z M2 67h24v1h-24z M27 67h1v1h-1z M29 67h8v1h-8z M38 67h4v1h-4z M44 67h5v1h-5z M50 67h9v1h-9z M60 67h2v1h-2z M63 67h10v1h-10z M74 67h1v1h-1z M76 67h1v1h-1z M78 67h27v1h-27z M2 68h24v1h-24z M81 68h24v1h-24z M2 69h24v1h-24z M51 69h1v1h-1z M55 69h1v1h-1z M60 69h1v1h-1z M71 69h1v1h-1z M74 69h1v1h-1z M80 69h25v1h-25z M2 70h103v1h-103z M2 71h103v1h-103z M2 72h103v1h-103z M2 73h103v1h-103z M2 74h103v1h-103z M2 75h103v1h-103z M2 76h103v1h-103z M2 77h103v1h-103z M2 78h103v1h-103z M2 79h103v1h-103z M2 80h103v1h-103z M2 81h103v1h-103z M2 82h103v1h-103z M2 83h103v1h-103z" fill="#2000b0"/>
<path d="M53 22h1v1h-1z M52 23h3v1h-3z M51 24h5v1h-5z M36 25h2v1h-2z M50 25h7v1h-7z M69 25h1v1h-1z M36 26h4v1h-4z M49 26h9v1h-9z M66 26h4v1h-4z M36 27h6v1h-6z M48 27h10v1h-10z M65 27h6v1h-6z M36 28h7v1h-7z M47 28h12v1h-12z M63 28h8v1h-8z M35 29h9v1h-9z M47 29h12v1h-12z M63 29h8v1h-8z M36 30h8v1h-8z M46 30h14v1h-14z M63 30h8v1h-8z M36 31h7v1h-7z M46 31h15v1h-15z M63 31h8v1h-8z M22 32h5v1h-5z M37 32h6v1h-6z M45 32h16v1h-16z M64 32h5v1h-5z M80 32h4v1h-4z M22 33h11v1h-11z M39 33h3v1h-3z M45 33h16v1h-16z M64 33h3v1h-3z M74 33h10v1h-10z M22 34h13v1h-13z M41 34h1v1h-1z M45 34h17v1h-17z M64 34h2v1h-2z M71 34h13v1h-13z M23 35h14v1h-14z M45 35h17v1h-17z M69 35h15v1h-15z M23 36h16v1h-16z M44 36h18v1h-18z M68 36h16v1h-16z M23 37h18v1h-18z M44 37h18v1h-18z M66 37h17v1h-17z M23 38h19v1h-19z M44 38h18v1h-18z M65 38h18v1h-18z M24 39h18v1h-18z M44 39h18v1h-18z M65 39h18v1h-18z M24 40h18v1h-18z M44 40h18v1h-18z M65 40h17v1h-17z M25 41h4v1h-4z M32 41h10v1h-10z M44 41h18v1h-18z M65 41h6v1h-6z M74 41h8v1h-8z M25 42h4v1h-4z M33 42h9v1h-9z M45 42h17v1h-17z M67 42h4v1h-4z M75 42h6v1h-6z M26 43h2v1h-2z M33 43h4v1h-4z M38 43h4v1h-4z M45 43h17v1h-17z M68 43h3v1h-3z M76 43h5v1h-5z M19 44h3v1h-3z M34 44h2v1h-2z M39 44h3v1h-3z M45 44h16v1h-16z M68 44h2v1h-2z M76 44h4v1h-4z M83 44h2v1h-2z M12 45h12v1h-12z M34 45h2v1h-2z M40 45h3v1h-3z M45 45h16v1h-16z M69 45h1v1h-1z M77 45h2v1h-2z M82 45h12v1h-12z M10 46h15v1h-15z M41 46h2v1h-2z M46 46h7v1h-7z M54 46h7v1h-7z M77 46h1v1h-1z M82 46h15v1h-15z M10 47h14v1h-14z M41 47h2v1h-2z M46 47h2v1h-2z M49 47h3v1h-3z M55 47h5v1h-5z M81 47h15v1h-15z M11 48h12v1h-12z M41 48h3v1h-3z M50 48h2v1h-2z M56 48h4v1h-4z M81 48h14v1h-14z M12 49h11v1h-11z M42 49h1v1h-1z M50 49h1v1h-1z M55 49h4v1h-4z M82 49h12v1h-12z M13 50h10v1h-10z M56 50h3v1h-3z M82 50h11v1h-11z M15 51h7v1h-7z M27 51h1v1h-1z M34 51h1v1h-1z M70 51h1v1h-1z M82 51h10v1h-10z M16 52h7v1h-7z M27 52h1v1h-1z M41 52h1v1h-1z M82 52h9v1h-9z M18 53h5v1h-5z M27 53h1v1h-1z M40 53h2v1h-2z M82 53h7v1h-7z M19 54h4v1h-4z M27 54h1v1h-1z M33 54h1v1h-1z M40 54h2v1h-2z M46 54h1v1h-1z M64 54h1v1h-1z M83 54h4v1h-4z M21 55h2v1h-2z M27 55h1v1h-1z M33 55h3v1h-3z M46 55h1v1h-1z M70 55h1v1h-1z M82 55h3v1h-3z M27 56h1v1h-1z M33 56h2v1h-2z M69 56h2v1h-2z M81 56h2v1h-2z M27 57h3v1h-3z M33 57h4v1h-4z M39 57h2v1h-2z M69 57h3v1h-3z M74 57h2v1h-2z M77 57h1v1h-1z M31 58h13v1h-13z M63 58h13v1h-13z" fill="#1007020"/>
<path d="M2 1h103v1h-103z M1 2h1v1h-1z M1 3h1v1h-1z M1 4h1v1h-1z M1 5h1v1h-1z M1 6h1v1h-1z M1 7h1v1h-1z M1 8h1v1h-1z M1 9h1v1h-1z M1 10h1v1h-1z M1 11h1v1h-1z M1 12h1v1h-1z M1 13h1v1h-1z M1 14h1v1h-1z M1 15h1v1h-1z M1 16h1v1h-1z M1 17h1v1h-1z M1 18h1v1h-1z M1 19h1v1h-1z M1 20h1v1h-1z M1 21h1v1h-1z M1 22h1v1h-1z M1 23h1v1h-1z M1 24h1v1h-1z M1 25h1v1h-1z M1 26h1v1h-1z M1 27h1v1h-1z M1 28h1v1h-1z M1 29h1v1h-1z M1 30h1v1h-1z M1 31h1v1h-1z M1 32h1v1h-1z M1 33h1v1h-1z M1 34h1v1h-1z M1 35h1v1h-1z M1 36h1v1h-1z M1 37h1v1h-1z M1 38h1v1h-1z M1 39h1v1h-1z M1 40h1v1h-1z M1 41h1v1h-1z M1 42h1v1h-1z M1 43h1v1h-1z M1 44h1v1h-1z M1 45h1v1h-1z M1 46h1v1h-1z M1 47h1v1h-1z M1 48h1v1h-1z M1 49h1v1h-1z M1 50h1v1h-1z M1 51h1v1h-1z M1 52h1v1h-1z M1 53h1v1h-1z M1 54h1v1h-1z M1 55h1v1h-1z M1 56h1v1h-1z M1 57h1v1h-1z M1 58h1v1h-1z M1 59h1v1h-1z M1 60h1v1h-1z M1 61h1v1h-1z M28 61h1v1h-1z M37 61h1v1h-1z M44 61h1v1h-1z M48 61h2v1h-2z M54 61h2v1h-2z M63 61h1v1h-1z M67 61h1v1h-1z M1 62h1v1h-1z M34 62h1v1h-1z M60 62h1v1h-1z M1 63h1v1h-1z M1 64h1v1h-1z M56 64h1v1h-1z M69 64h1v1h-1z M1 65h1v1h-1z M1 66h1v1h-1z M32 66h1v1h-1z M54 66h1v1h-1z M65 66h1v1h-1z M1 67h1v1h-1z M1 68h1v1h-1z M80 68h1v1h-1z M1 69h1v1h-1z M26 69h1v1h-1z M29 69h1v1h-1z M41 69h1v1h-1z M43 69h1v1h-1z M48 69h3v1h-3z M70 69h1v1h-1z M78 69h1v1h-1z M1 70h1v1h-1z M1 71h1v1h-1z M1 72h1v1h-1z M1 73h1v1h-1z M1 74h1v1h-1z M1 75h1v1h-1z M1 76h1v1h-1z M1 77h1v1h-1z M1 78h1v1h-1z M1 79h1v1h-1z M1 80h1v1h-1z M1 81h1v1h-1z M1 82h1v1h-1z M1 83h1v1h-1z" fill="#5030c0"/>
<path d="M30 42h1v1h-1z M72 42h2v1h-2z M30 43h1v1h-1z M65 43h2v1h-2z M73 43h1v1h-1z M28 44h4v1h-4z M37 44h1v1h-1z M65 44h2v1h-2z M72 44h3v1h-3z M28 45h5v1h-5z M37 45h2v1h-2z M64 45h4v1h-4z M71 45h5v1h-5z M29 46h3v1h-3z M37 46h2v1h-2z M64 46h3v1h-3z M72 46h4v1h-4z M28 47h4v1h-4z M35 47h4v1h-4z M53 47h1v1h-1z M65 47h2v1h-2z M72 47h3v1h-3z M79 47h1v1h-1z M28 48h4v1h-4z M34 48h6v1h-6z M53 48h1v1h-1z M65 48h2v1h-2z M69 48h1v1h-1z M72 48h3v1h-3z M78 48h2v1h-2z M24 49h1v1h-1z M28 49h4v1h-4z M36 49h5v1h-5z M52 49h1v1h-1z M65 49h3v1h-3z M72 49h5v1h-5z M78 49h2v1h-2z M24 50h1v1h-1z M28 50h4v1h-4z M36 50h3v1h-3z M48 50h2v1h-2z M52 50h2v1h-2z M60 50h2v1h-2z M64 50h4v1h-4z M72 50h4v1h-4z M78 50h2v1h-2z M24 51h2v1h-2z M31 51h1v1h-1z M36 51h3v1h-3z M47 51h3v1h-3z M52 51h3v1h-3z M60 51h2v1h-2z M65 51h4v1h-4z M72 51h1v1h-1z M74 51h1v1h-1z M78 51h2v1h-2z M24 52h2v1h-2z M36 52h2v1h-2z M44 52h1v1h-1z M48 52h1v1h-1z M53 52h5v1h-5z M61 52h1v1h-1z M65 52h1v1h-1z M67 52h1v1h-1z M72 52h1v1h-1z M75 52h1v1h-1z M78 52h2v1h-2z M24 53h1v1h-1z M31 53h1v1h-1z M36 53h2v1h-2z M44 53h1v1h-1z M48 53h1v1h-1z M53 53h3v1h-3z M57 53h2v1h-2z M61 53h1v1h-1z M72 53h1v1h-1z M75 53h1v1h-1z M77 53h4v1h-4z M24 54h1v1h-1z M36 54h2v1h-2z M43 54h1v1h-1z M48 54h1v1h-1z M53 54h1v1h-1z M58 54h1v1h-1z M61 54h1v1h-1z M72 54h1v1h-1z M75 54h1v1h-1z M24 55h1v1h-1z M37 55h1v1h-1z M58 55h1v1h-1z M61 55h1v1h-1z M72 55h1v1h-1z M75 55h1v1h-1z" fill="#000000"/>
<path d="M0 0h106v1h-106z M0 1h1v1h-1z M0 2h1v1h-1z M0 3h1v1h-1z M0 4h1v1h-1z M0 5h1v1h-1z M0 6h1v1h-1z M0 7h1v1h-1z M0 8h1v1h-1z M0 9h1v1h-1z M0 10h1v1h-1z M0 11h1v1h-1z M0 12h1v1h-1z M0 13h1v1h-1z M0 14h1v1h-1z M0 15h1v1h-1z M0 16h1v1h-1z M0 17h1v1h-1z M0 18h1v1h-1z M0 19h1v1h-1z M0 20h1v1h-1z M0 21h1v1h-1z M0 22h1v1h-1z M0 23h1v1h-1z M0 24h1v1h-1z M0 25h1v1h-1z M0 26h1v1h-1z M0 27h1v1h-1z M0 28h1v1h-1z M0 29h1v1h-1z M0 30h1v1h-1z M0 31h1v1h-1z M0 32h1v1h-1z M0 33h1v1h-1z M0 34h1v1h-1z M0 35h1v1h-1z M0 36h1v1h-1z M0 37h1v1h-1z M0 38h1v1h-1z M0 39h1v1h-1z M0 40h1v1h-1z M0 41h1v1h-1z M0 42h1v1h-1z M0 43h1v1h-1z M0 44h1v1h-1z M0 45h1v1h-1z M0 46h1v1h-1z M0 47h1v1h-1z M0 48h1v1h-1z M0 49h1v1h-1z M0 50h1v1h-1z M0 51h1v1h-1z M0 52h1v1h-1z M0 53h1v1h-1z M0 54h1v1h-1z M0 55h1v1h-1z M0 56h1v1h-1z M0 57h1v1h-1z M0 58h1v1h-1z M0 59h1v1h-1z M0 60h1v1h-1z M0 61h1v1h-1z M0 62h1v1h-1z M0 63h1v1h-1z M0 64h1v1h-1z M0 65h1v1h-1z M0 66h1v1h-1z M0 67h1v1h-1z M0 68h1v1h-1z M0 69h1v1h-1z M0 70h1v1h-1z M0 71h1v1h-1z M0 72h1v1h-1z M0 73h1v1h-1z M0 74h1v1h-1z M0 75h1v1h-1z M0 76h1v1h-1z M0 77h1v1h-1z M0 78h1v1h-1z M0 79h1v1h-1z M0 80h1v1h-1z M0 81h1v1h-1z M0 82h1v1h-1z M0 83h1v1h-1z M0 84h1v1h-1z M105 84h1v1h-1z" fill="#100100100"/>
<path d="M105 1h1v1h-1z M105 2h1v1h-1z M105 3h1v1h-1z M105 4h1v1h-1z M105 5h1v1h-1z M105 6h1v1h-1z M105 7h1v1h-1z M105 8h1v1h-1z M105 9h1v1h-1z M105 10h1v1h-1z M105 11h1v1h-1z M105 12h1v1h-1z M105 13h1v1h-1z M105 14h1v1h-1z M105 15h1v1h-1z M105 16h1v1h-1z M105 17h1v1h-1z M105 18h1v1h-1z M105 19h1v1h-1z M105 20h1v1h-1z M105 21h1v1h-1z M105 22h1v1h-1z M105 23h1v1h-1z M105 24h1v1h-1z M105 25h1v1h-1z M105 26h1v1h-1z M105 27h1v1h-1z M105 28h1v1h-1z M105 29h1v1h-1z M105 30h1v1h-1z M105 31h1v1h-1z M105 32h1v1h-1z M105 33h1v1h-1z M105 34h1v1h-1z M105 35h1v1h-1z M105 36h1v1h-1z M105 37h1v1h-1z M105 38h1v1h-1z M105 39h1v1h-1z M105 40h1v1h-1z M105 41h1v1h-1z M105 42h1v1h-1z M105 43h1v1h-1z M105 44h1v1h-1z M105 45h1v1h-1z M105 46h1v1h-1z M105 47h1v1h-1z M105 48h1v1h-1z M105 49h1v1h-1z M105 50h1v1h-1z M105 51h1v1h-1z M105 52h1v1h-1z M105 53h1v1h-1z M105 54h1v1h-1z M105 55h1v1h-1z M105 56h1v1h-1z M105 57h1v1h-1z M105 58h1v1h-1z M105 59h1v1h-1z M105 60h1v1h-1z M105 61h1v1h-1z M105 62h1v1h-1z M105 63h1v1h-1z M105 64h1v1h-1z M105 65h1v1h-1z M105 66h1v1h-1z M105 67h1v1h-1z M105 68h1v1h-1z M105 69h1v1h-1z M105 70h1v1h-1z M105 71h1v1h-1z M105 72h1v1h-1z M105 73h1v1h-1z M105 74h1v1h-1z M105 75h1v1h-1z M105 76h1v1h-1z M105 77h1v1h-1z M105 78h1v1h-1z M105 79h1v1h-1z M105 80h1v1h-1z M105 81h1v1h-1z M105 82h1v1h-1z M105 83h1v1h-1z M1 84h104v1h-104z" fill="#c0c0f0"/>
<path d="M52 21h1v1h-1z M68 24h1v1h-1z M70 24h1v1h-1z M40 25h1v1h-1z M48 25h1v1h-1z M47 26h1v1h-1z M64 26h1v1h-1z M71 26h1v1h-1z M43 27h1v1h-1z M59 27h1v1h-1z M34 28h1v1h-1z M44 28h1v1h-1z M34 29h1v1h-1z M61 29h1v1h-1z M34 30h1v1h-1z M44 30h1v1h-1z M21 31h1v1h-1z M27 31h2v1h-2z M34 31h1v1h-1z M61 31h1v1h-1z M78 31h1v1h-1z M32 32h1v1h-1z M43 32h2v1h-2z M71 32h1v1h-1z M73 32h1v1h-1z M21 33h1v1h-1z M35 33h2v1h-2z M43 33h1v1h-1z M21 34h1v1h-1z M37 34h1v1h-1z M62 34h1v1h-1z M67 34h2v1h-2z M21 35h1v1h-1z M39 35h2v1h-2z M63 35h1v1h-1z M43 36h1v1h-1z M64 36h2v1h-2z M84 37h1v1h-1z M22 38h1v1h-1z M42 38h1v1h-1z M42 39h1v1h-1z M23 41h1v1h-1z M43 41h1v1h-1z M63 42h1v1h-1z M16 43h8v1h-8z M62 43h1v1h-1z M83 43h8v1h-8z M11 44h1v1h-1z M24 44h2v1h-2z M94 44h1v1h-1z M43 45h1v1h-1z M97 45h1v1h-1z M62 46h1v1h-1z M8 47h1v1h-1z M9 48h1v1h-1z M45 48h1v1h-1z M10 49h1v1h-1z M11 50h1v1h-1z M93 51h1v1h-1z M15 53h1v1h-1z M34 53h2v1h-2z M70 53h1v1h-1z M87 55h1v1h-1z M41 56h1v1h-1z M64 56h1v1h-1z M85 56h1v1h-1z M23 57h1v1h-1z M46 57h2v1h-2z M55 57h1v1h-1z M26 58h1v1h-1z M57 58h1v1h-1z M80 58h1v1h-1z M30 59h1v1h-1z M47 59h2v1h-2z M58 59h1v1h-1z M76 59h1v1h-1z M62 61h1v1h-1z M30 62h1v1h-1z M52 62h1v1h-1z M78 62h1v1h-1z M57 63h1v1h-1z M82 63h1v1h-1z M36 64h1v1h-1z M57 64h1v1h-1z M65 64h1v1h-1z M71 64h1v1h-1z M74 64h1v1h-1z M30 65h1v1h-1z M42 65h1v1h-1z M51 65h2v1h-2z M59 65h1v1h-1z M69 65h1v1h-1z M71 65h1v1h-1z M73 65h1v1h-1z M79 65h2v1h-2z M28 66h1v1h-1z M36 66h1v1h-1z M48 66h1v1h-1z M55 66h1v1h-1z M66 66h3v1h-3z M40 68h1v1h-1z M51 68h1v1h-1z M34 69h1v1h-1z" fill="#401080"/>
<path d="M52 22h1v1h-1z M51 23h1v1h-1z M50 24h1v1h-1z M49 25h1v1h-1z M68 25h1v1h-1z M40 26h1v1h-1z M48 26h1v1h-1z M70 26h1v1h-1z M35 27h1v1h-1z M58 27h1v1h-1z M64 27h1v1h-1z M35 28h1v1h-1z M43 28h1v1h-1z M59 29h1v1h-1z M62 29h1v1h-1z M35 30h1v1h-1z M35 31h1v1h-1z M27 32h2v1h-2z M36 32h1v1h-1z M63 32h1v1h-1z M77 32h2v1h-2z M38 33h1v1h-1z M42 33h1v1h-1z M61 33h1v1h-1z M67 33h1v1h-1z M73 33h1v1h-1z M35 34h1v1h-1z M40 34h1v1h-1z M70 34h1v1h-1z M22 35h1v1h-1z M37 35h1v1h-1z M44 35h1v1h-1z M64 35h1v1h-1z M68 35h1v1h-1z M39 36h1v1h-1z M65 37h1v1h-1z M83 37h1v1h-1z M23 39h1v1h-1z M24 41h1v1h-1z M64 41h1v1h-1z M71 41h1v1h-1z M44 42h1v1h-1z M64 42h1v1h-1z M81 42h1v1h-1z M28 43h1v1h-1z M37 43h1v1h-1z M64 43h1v1h-1z M71 43h1v1h-1z M75 43h1v1h-1z M16 44h3v1h-3z M22 44h2v1h-2z M42 44h1v1h-1z M61 44h1v1h-1z M85 44h6v1h-6z M11 45h1v1h-1z M94 45h1v1h-1z M45 46h1v1h-1z M24 47h1v1h-1z M43 47h1v1h-1z M48 47h1v1h-1z M60 47h1v1h-1z M96 47h1v1h-1z M62 48h1v1h-1z M95 48h1v1h-1z M43 49h1v1h-1z M47 49h1v1h-1z M59 49h1v1h-1z M94 49h1v1h-1z M42 50h1v1h-1z M93 50h1v1h-1z M15 52h1v1h-1z M70 52h1v1h-1z M42 53h1v1h-1z M64 53h1v1h-1z M34 54h1v1h-1z M87 54h1v1h-1z M77 55h1v1h-1z M85 55h1v1h-1z M23 56h1v1h-1z M35 56h1v1h-1z M46 56h1v1h-1z M26 57h1v1h-1z M41 57h1v1h-1z M64 57h2v1h-2z M30 58h1v1h-1z M76 58h1v1h-1z M36 59h5v1h-5z M65 59h5v1h-5z" fill="#e07040"/>
<path d="M2 2h1v1h-1z M55 22h1v1h-1z M56 23h1v1h-1z M38 24h1v1h-1z M57 24h1v1h-1z M45 28h1v1h-1z M60 28h1v1h-1z M45 29h1v1h-1z M61 30h1v1h-1z M29 31h2v1h-2z M44 31h1v1h-1z M77 31h1v1h-1z M34 32h1v1h-1z M43 35h1v1h-1z M42 37h1v1h-1z M63 38h1v1h-1z M22 40h1v1h-1z M63 40h1v1h-1z M63 41h1v1h-1z M15 43h1v1h-1z M43 43h1v1h-1z M62 44h1v1h-1z M81 44h1v1h-1z M95 44h1v1h-1z M25 45h1v1h-1z M80 45h1v1h-1z M26 46h1v1h-1z M44 46h1v1h-1z M44 47h1v1h-1z M61 47h1v1h-1z M92 52h1v1h-1z M91 53h1v1h-1z M16 54h1v1h-1z M89 54h1v1h-1z M22 57h1v1h-1z M51 57h1v1h-1z M83 57h1v1h-1z M81 58h1v1h-1z M32 60h1v1h-1z M37 60h1v1h-1z M39 60h2v1h-2z M44 60h1v1h-1z M54 60h1v1h-1z M62 60h3v1h-3z M66 60h4v1h-4z M79 61h1v1h-1z M40 62h1v1h-1z M43 62h1v1h-1z M46 62h1v1h-1z M28 63h1v1h-1z M36 63h1v1h-1z M48 63h2v1h-2z M54 63h1v1h-1z M61 63h1v1h-1z M28 64h1v1h-1z M44 65h1v1h-1z M41 66h1v1h-1z M45 66h1v1h-1z M47 66h1v1h-1z M56 66h1v1h-1z M72 66h5v1h-5z M28 67h1v1h-1z M37 67h1v1h-1z M43 67h1v1h-1z M49 67h1v1h-1z M77 67h1v1h-1z M35 69h1v1h-1z M59 69h1v1h-1z M62 69h1v1h-1z M68 69h1v1h-1z M75 69h1v1h-1z" fill="#100090"/>
<path d="M38 25h1v1h-1z M65 26h1v1h-1z M42 27h1v1h-1z M47 27h1v1h-1z M62 28h1v1h-1z M46 29h1v1h-1z M60 30h1v1h-1z M45 31h1v1h-1z M29 32h1v1h-1z M70 32h1v1h-1z M76 32h1v1h-1z M84 32h1v1h-1z M33 33h1v1h-1z M42 34h1v1h-1z M41 35h1v1h-1z M22 36h1v1h-1z M66 36h1v1h-1z M62 37h1v1h-1z M62 38h1v1h-1z M64 38h1v1h-1z M62 39h1v1h-1z M64 39h1v1h-1z M62 40h1v1h-1z M64 40h1v1h-1z M82 40h1v1h-1z M25 43h1v1h-1z M42 43h1v1h-1z M44 43h1v1h-1z M14 44h2v1h-2z M82 44h1v1h-1z M91 44h1v1h-1z M10 45h1v1h-1z M24 45h1v1h-1z M61 45h1v1h-1z M79 45h1v1h-1z M95 45h1v1h-1z M97 46h1v1h-1z M9 47h1v1h-1z M77 47h1v1h-1z M10 48h1v1h-1z M47 48h1v1h-1z M11 49h1v1h-1z M12 50h1v1h-1z M55 50h1v1h-1z M69 50h1v1h-1z M58 51h1v1h-1z M71 51h1v1h-1z M76 51h1v1h-1z M92 51h1v1h-1z M35 52h1v1h-1z M33 53h1v1h-1z M89 53h1v1h-1z M18 54h1v1h-1z M28 54h1v1h-1z M39 54h1v1h-1z M71 54h1v1h-1z M20 55h1v1h-1z M28 55h1v1h-1z M41 55h1v1h-1z M52 55h1v1h-1z M63 55h2v1h-2z M69 55h1v1h-1z M71 55h1v1h-1z M22 56h1v1h-1z M39 56h1v1h-1z M47 56h1v1h-1z M83 56h1v1h-1z M42 57h1v1h-1z M29 58h1v1h-1z M77 58h1v1h-1z M35 59h1v1h-1z M41 59h3v1h-3z M63 59h2v1h-2z M70 59h1v1h-1z" fill="#c06050"/>
<path d="M72 43h1v1h-1z M32 44h1v1h-1z M71 44h1v1h-1z M27 46h2v1h-2z M32 46h2v1h-2z M36 46h1v1h-1z M67 46h2v1h-2z M71 46h1v1h-1z M39 47h1v1h-1z M64 47h1v1h-1z M68 47h1v1h-1z M75 47h1v1h-1z M78 47h1v1h-1z M24 48h1v1h-1z M48 48h1v1h-1z M67 48h1v1h-1z M75 48h1v1h-1z M25 49h1v1h-1z M48 49h1v1h-1z M53 49h1v1h-1z M60 49h2v1h-2z M77 49h1v1h-1z M80 49h1v1h-1z M25 50h1v1h-1z M35 50h1v1h-1z M39 50h1v1h-1z M47 50h1v1h-1z M28 51h1v1h-1z M43 51h1v1h-1z M55 51h1v1h-1z M62 51h1v1h-1z M64 51h1v1h-1z M75 51h1v1h-1z M80 51h1v1h-1z M28 52h1v1h-1z M31 52h1v1h-1z M38 52h1v1h-1z M43 52h1v1h-1z M49 52h1v1h-1z M52 52h1v1h-1z M60 52h1v1h-1z M66 52h1v1h-1z M68 52h1v1h-1z M73 52h2v1h-2z M80 52h1v1h-1z M25 53h1v1h-1z M29 53h1v1h-1z M43 53h1v1h-1z M47 53h1v1h-1z M49 53h1v1h-1z M56 53h1v1h-1z M60 53h1v1h-1z M65 53h1v1h-1z M67 53h1v1h-1z M25 54h1v1h-1z M31 54h1v1h-1z M44 54h1v1h-1z M56 54h1v1h-1z M67 54h1v1h-1z M78 54h3v1h-3z M36 55h1v1h-1z M50 55h1v1h-1z M59 55h2v1h-2z M65 55h1v1h-1z M67 55h1v1h-1z M37 56h1v1h-1z M51 56h1v1h-1z M60 56h1v1h-1z M62 56h1v1h-1z" fill="#201010"/>
<path d="M61 28h1v1h-1z M26 61h1v1h-1z M31 61h1v1h-1z M33 61h1v1h-1z M36 61h1v1h-1z M38 61h1v1h-1z M41 61h1v1h-1z M45 61h1v1h-1z M53 61h1v1h-1z M59 61h1v1h-1z M64 61h1v1h-1z M66 61h1v1h-1z M69 61h1v1h-1z M72 61h2v1h-2z M75 61h2v1h-2z M80 61h2v1h-2z M51 62h1v1h-1z M43 63h1v1h-1z M69 63h1v1h-1z M71 63h1v1h-1z M77 63h1v1h-1z M79 63h1v1h-1z M81 64h1v1h-1z M77 65h1v1h-1z M82 65h1v1h-1z M31 66h1v1h-1z M33 66h1v1h-1z M38 66h1v1h-1z M43 66h1v1h-1z M57 66h1v1h-1z M61 66h2v1h-2z M69 66h1v1h-1z M79 66h2v1h-2z M26 67h1v1h-1z M42 67h1v1h-1z M59 67h1v1h-1z M62 67h1v1h-1z M73 67h1v1h-1z M75 67h1v1h-1z M38 68h1v1h-1z M55 68h1v1h-1z M60 68h1v1h-1z M68 68h2v1h-2z M74 68h1v1h-1z M27 69h1v1h-1z M31 69h1v1h-1z M33 69h1v1h-1z M38 69h3v1h-3z M42 69h1v1h-1z M44 69h4v1h-4z M52 69h3v1h-3z M56 69h3v1h-3z M61 69h1v1h-1z M65 69h3v1h-3z M69 69h1v1h-1z M72 69h2v1h-2z M76 69h2v1h-2z M79 69h1v1h-1z" fill="#3020a0"/>
<path d="M53 21h1v1h-1z M51 22h1v1h-1z M50 23h1v1h-1z M49 24h1v1h-1z M35 25h1v1h-1z M66 25h1v1h-1z M41 26h1v1h-1z M58 26h1v1h-1z M71 27h1v1h-1z M46 28h1v1h-1z M60 29h1v1h-1z M45 30h1v1h-1z M62 31h1v1h-1z M79 31h1v1h-1z M84 31h1v1h-1z M21 32h1v1h-1z M74 32h1v1h-1z M69 33h1v1h-1z M71 33h1v1h-1z M63 34h1v1h-1z M62 35h1v1h-1z M65 35h1v1h-1z M67 35h1v1h-1z M84 36h1v1h-1z M43 37h1v1h-1z M64 37h1v1h-1z M43 38h1v1h-1z M43 39h1v1h-1z M83 39h1v1h-1z M42 40h2v1h-2z M42 41h1v1h-1z M82 41h1v1h-1z M63 43h1v1h-1z M81 43h1v1h-1z M12 44h1v1h-1z M9 45h1v1h-1z M44 45h1v1h-1z M61 46h1v1h-1z M80 46h1v1h-1z M97 47h1v1h-1z M44 48h1v1h-1z M96 48h1v1h-1z M45 50h1v1h-1z M94 50h1v1h-1z M14 52h1v1h-1z M90 53h1v1h-1z M17 54h1v1h-1z M70 54h1v1h-1z M68 55h1v1h-1z M21 56h1v1h-1z M40 56h1v1h-1z M48 57h3v1h-3z M57 57h1v1h-1z M82 57h1v1h-1z M48 58h1v1h-1z M58 58h1v1h-1z M79 58h1v1h-1z M31 59h1v1h-1z M46 59h1v1h-1z M74 59h2v1h-2z M81 62h1v1h-1z M26 63h1v1h-1z M50 63h1v1h-1z M63 63h1v1h-1z M75 63h1v1h-1z M32 65h1v1h-1z M37 65h1v1h-1z M60 65h1v1h-1z M68 65h1v1h-1z M74 65h1v1h-1z" fill="#603070"/>
<path d="M54 22h1v1h-1z M36 24h2v1h-2z M69 24h1v1h-1z M39 25h1v1h-1z M57 25h1v1h-1z M63 27h1v1h-1z M71 28h1v1h-1z M44 29h1v1h-1z M71 29h1v1h-1z M71 30h1v1h-1z M23 31h4v1h-4z M71 31h1v1h-1z M80 31h4v1h-4z M31 32h1v1h-1z M35 32h1v1h-1z M75 32h1v1h-1z M34 33h1v1h-1z M37 33h1v1h-1z M44 33h1v1h-1z M39 34h1v1h-1z M69 34h1v1h-1z M42 35h1v1h-1z M84 35h1v1h-1z M40 36h1v1h-1z M62 36h1v1h-1z M23 40h1v1h-1z M24 42h1v1h-1z M42 42h1v1h-1z M62 42h1v1h-1z M63 44h1v1h-1z M93 44h1v1h-1z M26 45h1v1h-1z M81 45h1v1h-1z M96 45h1v1h-1z M8 46h1v1h-1z M43 46h1v1h-1z M45 47h1v1h-1z M62 47h1v1h-1z M95 49h1v1h-1z M59 50h1v1h-1z M13 51h1v1h-1z M34 52h1v1h-1z M88 54h1v1h-1z M19 55h1v1h-1z M86 55h1v1h-1z M56 56h1v1h-1z M84 56h1v1h-1z M24 57h1v1h-1z M56 57h1v1h-1z M63 57h1v1h-1z M27 58h1v1h-1z M47 58h1v1h-1z M78 58h1v1h-1z M32 59h1v1h-1z M45 59h1v1h-1z M59 59h2v1h-2z M73 59h1v1h-1z M32 63h1v1h-1z M45 63h1v1h-1z M40 65h1v1h-1z M67 65h1v1h-1z" fill="#804070"/>
<path d="M30 41h1v1h-1z M31 42h1v1h-1z M31 43h1v1h-1z M67 44h1v1h-1z M39 46h1v1h-1z M70 46h1v1h-1z M76 46h1v1h-1z M32 47h2v1h-2z M67 47h1v1h-1z M69 47h2v1h-2z M76 47h1v1h-1z M32 48h1v1h-1z M40 48h1v1h-1z M64 48h1v1h-1z M76 48h1v1h-1z M26 49h1v1h-1z M32 49h4v1h-4z M64 49h1v1h-1z M23 50h1v1h-1z M32 50h1v1h-1z M41 50h1v1h-1z M68 50h1v1h-1z M76 50h1v1h-1z M80 50h1v1h-1z M23 51h1v1h-1z M29 51h2v1h-2z M39 51h1v1h-1z M44 51h1v1h-1z M50 51h1v1h-1z M29 52h1v1h-1z M50 52h2v1h-2z M64 52h1v1h-1z M77 52h1v1h-1z M28 53h1v1h-1z M45 53h1v1h-1z M50 53h1v1h-1z M52 53h1v1h-1z M62 53h1v1h-1z M30 54h1v1h-1z M47 54h1v1h-1z M50 54h1v1h-1z M54 54h1v1h-1z M60 54h1v1h-1z M62 54h1v1h-1z M65 54h1v1h-1z M25 55h1v1h-1z M43 55h1v1h-1z M48 55h1v1h-1z M78 55h2v1h-2z M44 56h1v1h-1z M54 56h1v1h-1z M57 56h1v1h-1z M65 56h1v1h-1z M72 56h1v1h-1z M75 56h1v1h-1z" fill="#402010"/>
<path d="M31 41h1v1h-1z M29 43h1v1h-1z M27 45h1v1h-1z M39 45h1v1h-1z M68 45h1v1h-1z M76 45h1v1h-1z M35 46h1v1h-1z M52 47h1v1h-1z M54 47h1v1h-1z M23 48h1v1h-1z M25 48h2v1h-2z M49 48h1v1h-1z M70 48h2v1h-2z M41 49h1v1h-1z M51 49h1v1h-1z M54 49h1v1h-1z M68 49h1v1h-1z M71 49h1v1h-1z M26 50h2v1h-2z M62 50h1v1h-1z M26 51h1v1h-1z M35 51h1v1h-1z M42 51h1v1h-1z M63 51h1v1h-1z M69 51h1v1h-1z M39 52h1v1h-1z M45 52h1v1h-1z M69 52h1v1h-1z M23 53h1v1h-1z M26 53h1v1h-1z M46 53h1v1h-1z M68 53h1v1h-1z M74 53h1v1h-1z M76 53h1v1h-1z M81 53h1v1h-1z M26 54h1v1h-1z M45 54h1v1h-1z M76 54h1v1h-1z M81 54h1v1h-1z M30 55h1v1h-1z M53 55h2v1h-2z M76 55h1v1h-1z M25 56h1v1h-1z M28 56h2v1h-2z M31 56h1v1h-1z M38 56h1v1h-1z M48 56h1v1h-1z M52 56h1v1h-1z M67 56h1v1h-1z M71 56h1v1h-1z M73 56h1v1h-1z M76 56h1v1h-1z M78 56h1v1h-1z M80 56h1v1h-1z" fill="#804020"/>
<path d="M32 61h1v1h-1z M68 61h1v1h-1z M35 62h1v1h-1z M42 62h1v1h-1z M69 62h1v1h-1z M40 63h1v1h-1z M56 63h1v1h-1z M68 63h1v1h-1z M78 63h1v1h-1z M50 64h1v1h-1z M68 64h1v1h-1z M34 65h1v1h-1z M39 65h1v1h-1z M41 65h1v1h-1z M46 65h1v1h-1z M49 65h1v1h-1z M65 65h1v1h-1z M81 65h1v1h-1z M26 68h7v1h-7z M35 68h3v1h-3z M41 68h1v1h-1z M43 68h4v1h-4z M48 68h3v1h-3z M53 68h2v1h-2z M56 68h1v1h-1z M58 68h2v1h-2z M61 68h2v1h-2z M65 68h3v1h-3z M70 68h1v1h-1z M72 68h2v1h-2z M76 68h4v1h-4z M28 69h1v1h-1z M30 69h1v1h-1z M32 69h1v1h-1z M63 69h2v1h-2z" fill="#6050a0"/>
<path d="M72 41h1v1h-1z M65 42h2v1h-2z M74 43h1v1h-1z M38 44h1v1h-1z M75 44h1v1h-1z M33 45h1v1h-1z M70 45h1v1h-1z M63 46h1v1h-1z M26 47h1v1h-1z M34 47h1v1h-1z M63 47h1v1h-1z M71 47h1v1h-1z M33 48h1v1h-1z M54 48h1v1h-1z M63 48h1v1h-1z M68 48h1v1h-1z M80 48h1v1h-1z M49 49h1v1h-1z M63 49h1v1h-1z M69 49h2v1h-2z M40 50h1v1h-1z M43 50h2v1h-2z M54 50h1v1h-1z M63 50h1v1h-1z M71 50h1v1h-1z M56 51h1v1h-1z M23 52h1v1h-1z M26 52h1v1h-1z M30 52h1v1h-1z M46 52h1v1h-1z M62 52h1v1h-1z M30 53h1v1h-1z M38 53h1v1h-1z M66 53h1v1h-1z M73 53h1v1h-1z M29 54h1v1h-1z M52 54h1v1h-1z M55 54h1v1h-1z M66 54h1v1h-1z M73 54h2v1h-2z M29 55h1v1h-1z M31 55h1v1h-1z M44 55h1v1h-1z M55 55h1v1h-1z M62 55h1v1h-1z M73 55h2v1h-2z M80 55h1v1h-1z M24 56h1v1h-1z M30 56h1v1h-1z M36 56h1v1h-1z M58 56h1v1h-1z M79 56h1v1h-1z" fill="#603020"/>
<path d="M44 34h1v1h-1z M29 41h1v1h-1z M73 41h1v1h-1z M29 42h1v1h-1z M71 42h1v1h-1z M74 42h1v1h-1z M32 43h1v1h-1z M67 43h1v1h-1z M36 44h1v1h-1z M64 44h1v1h-1z M34 46h1v1h-1z M69 46h1v1h-1z M78 46h1v1h-1z M40 47h1v1h-1z M80 47h1v1h-1z M33 50h1v1h-1z M50 50h2v1h-2z M81 50h1v1h-1z M40 51h2v1h-2z M77 51h1v1h-1z M81 51h1v1h-1z M40 52h1v1h-1z M42 52h1v1h-1z M63 52h1v1h-1z M76 52h1v1h-1z M81 52h1v1h-1z M32 53h1v1h-1z M39 53h1v1h-1z M51 53h1v1h-1z M32 54h1v1h-1z M51 54h1v1h-1z M59 54h1v1h-1z M23 55h1v1h-1z M26 55h1v1h-1z M32 55h1v1h-1z M45 55h1v1h-1z M47 55h1v1h-1z M51 55h1v1h-1z M81 55h1v1h-1z M74 56h1v1h-1z M77 56h1v1h-1z M37 57h2v1h-2z M66 57h2v1h-2z M72 57h2v1h-2z" fill="#b05020"/>
<path d="M55 23h1v1h-1z M56 24h1v1h-1z M67 25h1v1h-1z M70 25h1v1h-1z M35 26h1v1h-1z M59 28h1v1h-1z M62 30h1v1h-1z M22 31h1v1h-1z M43 31h1v1h-1z M30 32h1v1h-1z M61 32h1v1h-1z M63 33h1v1h-1z M68 33h1v1h-1z M72 33h1v1h-1z M84 33h1v1h-1z M36 34h1v1h-1z M66 34h1v1h-1z M38 35h1v1h-1z M41 37h1v1h-1z M83 38h1v1h-1z M62 41h1v1h-1z M13 44h1v1h-1z M44 44h1v1h-1z M80 44h1v1h-1z M92 44h1v1h-1z M25 46h1v1h-1z M44 49h1v1h-1z M46 49h1v1h-1z M33 51h1v1h-1z M45 51h1v1h-1z M71 52h1v1h-1z M91 52h1v1h-1z M16 53h1v1h-1z M35 54h1v1h-1z M42 55h1v1h-1z M45 56h1v1h-1z M28 58h1v1h-1z M59 58h1v1h-1z M33 59h2v1h-2z M44 59h1v1h-1z M61 59h2v1h-2z M71 59h2v1h-2z" fill="#a05060"/>
<path d="M26 62h1v1h-1z M28 62h2v1h-2z M31 62h1v1h-1z M33 62h1v1h-1z M36 62h1v1h-1z M38 62h1v1h-1z M47 62h1v1h-1z M50 62h1v1h-1z M53 62h1v1h-1z M55 62h2v1h-2z M62 62h1v1h-1z M64 62h1v1h-1z M66 62h1v1h-1z M25 63h1v1h-1z M30 63h1v1h-1z M33 63h1v1h-1z M42 63h1v1h-1z M51 63h2v1h-2z M59 63h1v1h-1z M62 63h1v1h-1z M65 63h2v1h-2z M25 64h1v1h-1z M30 64h1v1h-1z M34 64h1v1h-1z M40 64h2v1h-2z M51 64h2v1h-2z M58 64h1v1h-1z M64 64h1v1h-1z M26 65h1v1h-1z M29 65h1v1h-1z M36 65h1v1h-1z M38 65h1v1h-1z M50 65h1v1h-1z M53 65h1v1h-1z M55 65h2v1h-2z M61 65h2v1h-2z" fill="#b080a0"/>
<path d="M32 62h1v1h-1z M37 62h1v1h-1z M39 62h1v1h-1z M45 62h1v1h-1z M54 62h1v1h-1z M65 62h1v1h-1z M68 62h1v1h-1z M75 62h1v1h-1z M29 63h1v1h-1z M34 63h1v1h-1z M46 63h2v1h-2z M58 63h1v1h-1z M64 63h1v1h-1z M67 63h1v1h-1z M29 64h1v1h-1z M32 64h2v1h-2z M39 64h1v1h-1z M44 64h1v1h-1z M47 64h1v1h-1z M67 64h1v1h-1z M27 65h2v1h-2z M33 65h1v1h-1z M35 65h1v1h-1z M48 65h1v1h-1z M54 65h1v1h-1z M58 65h1v1h-1z M42 68h1v1h-1z M37 69h1v1h-1z" fill="#805090"/>
<path d="M27 61h1v1h-1z M25 62h1v1h-1z M73 62h1v1h-1z M76 62h1v1h-1z M79 62h2v1h-2z M82 62h1v1h-1z M53 63h1v1h-1z M26 64h1v1h-1z M53 64h1v1h-1z M61 64h1v1h-1z M77 64h1v1h-1z M82 64h1v1h-1z M25 65h1v1h-1z M63 65h1v1h-1z M76 65h1v1h-1z M78 65h1v1h-1z M27 66h1v1h-1z M37 66h1v1h-1z M49 66h1v1h-1z M33 68h2v1h-2z M39 68h1v1h-1z M47 68h1v1h-1z M52 68h1v1h-1z M57 68h1v1h-1z M63 68h2v1h-2z M71 68h1v1h-1z M75 68h1v1h-1z M36 69h1v1h-1z" fill="#504090"/>
<path d="M32 42h1v1h-1z M27 44h1v1h-1z M33 44h1v1h-1z M70 44h1v1h-1z M40 46h1v1h-1z M53 46h1v1h-1z M55 48h1v1h-1z M62 49h1v1h-1z M81 49h1v1h-1z M34 50h1v1h-1z M70 50h1v1h-1z M57 51h1v1h-1z M63 53h1v1h-1z M23 54h1v1h-1z M42 54h1v1h-1z M63 54h1v1h-1z M82 54h1v1h-1z M26 56h1v1h-1z M32 56h1v1h-1z M68 56h1v1h-1z M30 57h3v1h-3z M68 57h1v1h-1z M76 57h1v1h-1z M79 57h1v1h-1z" fill="#d06020"/>
<path d="M41 62h1v1h-1z M44 62h1v1h-1z M48 62h2v1h-2z M63 62h1v1h-1z M67 62h1v1h-1z M31 63h1v1h-1z M35 63h1v1h-1z M39 63h1v1h-1z M60 63h1v1h-1z M31 64h1v1h-1z M35 64h1v1h-1z M42 64h1v1h-1z M45 64h2v1h-2z M59 64h1v1h-1z M62 64h1v1h-1z M66 64h1v1h-1z M31 65h1v1h-1z M45 65h1v1h-1z M47 65h1v1h-1z M57 65h1v1h-1z M66 65h1v1h-1z" fill="#a07090"/>
<path d="M70 33h1v1h-1z M79 46h1v1h-1z M77 48h1v1h-1z M46 51h1v1h-1z M71 53h1v1h-1z M68 54h1v1h-1z M38 55h2v1h-2z M57 55h1v1h-1z M66 55h1v1h-1z M42 56h2v1h-2z M50 56h1v1h-1z M63 56h1v1h-1z M45 57h1v1h-1z M53 57h1v1h-1z M58 57h3v1h-3z" fill="#301050"/>
<path d="M69 32h1v1h-1z M79 32h1v1h-1z M67 36h1v1h-1z M26 44h1v1h-1z M9 46h1v1h-1z M81 46h1v1h-1z M25 47h1v1h-1z M46 48h1v1h-1z M14 51h1v1h-1z M22 51h1v1h-1z M17 53h1v1h-1z M78 57h1v1h-1z M44 58h2v1h-2z M61 58h2v1h-2z" fill="#1008040"/>
<path d="M36 45h1v1h-1z M52 48h1v1h-1z M60 48h1v1h-1z M23 49h1v1h-1z M27 49h1v1h-1z M77 50h1v1h-1z M59 53h1v1h-1z M53 56h1v1h-1z M25 57h1v1h-1z" fill="#905030"/>
<path d="M27 47h1v1h-1z M73 51h1v1h-1z M47 52h1v1h-1z M58 52h1v1h-1z M49 54h1v1h-1z M57 54h1v1h-1z M49 55h1v1h-1z M56 55h1v1h-1z M61 56h1v1h-1z" fill="#100020"/>
<path d="M38 34h1v1h-1z M66 35h1v1h-1z M41 36h1v1h-1z M61 48h1v1h-1z M46 50h1v1h-1z M33 52h1v1h-1z M69 54h1v1h-1z M52 57h1v1h-1z" fill="#200070"/>
<path d="M27 48h1v1h-1z M32 52h1v1h-1z M59 52h1v1h-1z M40 55h1v1h-1z M59 56h1v1h-1z M44 57h1v1h-1z M61 57h2v1h-2z" fill="#502040"/>
<path d="M41 63h1v1h-1z M44 63h1v1h-1z M43 64h1v1h-1z M60 64h1v1h-1z M63 64h1v1h-1z M43 65h1v1h-1z" fill="#c09090"/>
<path d="M84 34h1v1h-1z M22 37h1v1h-1z M63 45h1v1h-1z M69 53h1v1h-1z M81 57h1v1h-1z" fill="#904050"/>
<path d="M32 51h1v1h-1z M59 51h1v1h-1z M55 56h1v1h-1z" fill="#200040"/>
<path d="M51 51h1v1h-1z M77 54h1v1h-1z M80 57h1v1h-1z" fill="#a06040"/>
<path d="M75 64h1v1h-1z M72 65h1v1h-1z M75 65h1v1h-1z" fill="#404060"/>
<path d="M72 62h1v1h-1z M72 63h1v1h-1z M72 64h1v1h-1z" fill="#505070"/>
</svg>